<?xml version="1.0" encoding="iso-8859-1"?>
<!-- Generator: Adobe Illustrator 18.0.0, SVG Export Plug-In . SVG Version: 6.00 Build 0)  -->
<!DOCTYPE svg PUBLIC "-//W3C//DTD SVG 1.1//EN" "http://www.w3.org/Graphics/SVG/1.1/DTD/svg11.dtd">
<svg xmlns="http://www.w3.org/2000/svg" xmlns:xlink="http://www.w3.org/1999/xlink" version="1.1" id="Capa_1" x="0px" y="0px" viewBox="0 0 436.874 436.874" style="enable-background:new 0 0 436.874 436.874;" xml:space="preserve" width="512px" height="512px">
<g>
	<path d="M424.674,22.594c-1.597-4.918-5.449-8.778-10.364-10.383c-1.527-0.499-37.994-12.21-90.603-12.21   c-19.333,0-41.445,1.615-65.099,6.24c50.196,65.4,106.67,121.871,172.049,172.045c3.052-15.641,4.998-31.65,5.797-47.949   C439.466,68.965,425.28,24.458,424.674,22.594z" fill="#ffffff"/>
	<path d="M231.55,12.755c-44.641,12.812-92.826,37.229-137.193,81.594c-32.078,32.079-56.383,68.872-72.239,109.358   c-3.561,9.092-6.682,18.376-9.391,27.819c74.029,55.504,137.066,118.537,192.601,192.59c44.64-12.814,92.825-37.233,137.194-81.605   c32.022-32.02,56.299-68.74,72.156-109.141c3.595-9.157,6.743-18.509,9.473-28.023C350.119,149.843,287.082,86.809,231.55,12.755z    M315.576,210.723c-1.202,0.566-2.264-0.067-3.309-0.608c-1.76-0.91-3.482-1.895-5.182-2.912c-4.08-2.444-8.039-5.094-11.893-7.878   c-8.232-5.946-16.032-12.462-23.467-19.376c-7.968,9.791-16.213,19.343-24.777,28.618c-2.199,2.382-4.417,4.748-6.65,7.098   c-1.083,1.14-2.17,2.275-3.261,3.407c-0.547,0.568-1.095,1.136-1.645,1.702c-0.422,0.435-0.113,0.461,0.24,0.851   c0.342,0.377,0.682,0.755,1.022,1.134c4.179,4.659,8.187,9.471,11.989,14.442c3.605,4.713,7.039,9.562,10.186,14.595   c1.402,2.242,2.754,4.519,3.993,6.856c0.653,1.232,1.623,2.63,0.854,4.041c-0.978,1.796-2.811,1.27-4.249,0.531   c-2.203-1.132-4.348-2.379-6.459-3.672c-5.025-3.079-9.865-6.451-14.568-10c-5.05-3.811-9.943-7.83-14.671-12.033   c-0.593-0.527-1.183-1.057-1.771-1.588c-0.296-0.268-0.591-0.535-0.886-0.804c-0.283,0.275-0.566,0.551-0.849,0.825   c-1.224,1.189-2.451,2.373-3.683,3.552c-2.346,2.247-4.708,4.477-7.085,6.69c-9.261,8.618-18.782,16.959-28.582,24.96   c-0.274,0.225-0.549,0.448-0.824,0.672c8.494,9.142,16.436,18.841,23.352,29.236c2.628,3.95,5.202,8.015,7.271,12.292   c0.931,1.924-0.793,4.202-2.939,3.508c-1.46-0.474-2.872-1.436-4.195-2.186c-10.352-5.865-19.933-13.12-28.99-20.808   c-2.425-2.058-4.804-4.171-7.148-6.321c-1.152-1.057-2.297-2.123-3.434-3.197c-1.243,0.923-2.489,1.843-3.744,2.75   c-4.586,3.313-9.234,6.547-14.015,9.573c-1.038,0.657-2.08,1.309-3.14,1.93c-1.763,1.032-4.095,0.334-4.96-1.531   c-0.684-1.475-0.122-2.786,0.64-4.045c1.053-1.741,2.151-3.457,3.27-5.158c3.271-4.976,6.717-9.838,10.264-14.62   c0.358-0.484,0.064-0.502-0.303-0.891c-0.269-0.285-0.538-0.57-0.806-0.855c-0.535-0.57-1.067-1.141-1.598-1.715   c-1.136-1.229-2.262-2.466-3.375-3.715c-2.126-2.385-4.205-4.813-6.236-7.278c-7.054-8.561-13.808-17.615-19.064-27.412   c-0.674-1.256-1.62-2.63-0.937-4.093c0.901-1.933,2.902-1.65,4.458-0.849c4.357,2.248,8.518,4.905,12.568,7.66   c9.962,6.776,19.28,14.491,28.08,22.711c7.954-9.781,16.247-19.286,24.817-28.53c2.202-2.375,4.422-4.733,6.657-7.076   c1.085-1.137,2.172-2.27,3.264-3.398c0.548-0.566,1.096-1.132,1.646-1.697c0.428-0.439,0.095-0.48-0.262-0.871   c-0.357-0.393-0.713-0.785-1.068-1.179c-4.266-4.731-8.352-9.625-12.231-14.679c-3.494-4.551-6.824-9.23-9.89-14.081   c-1.292-2.044-2.54-4.117-3.705-6.236c-0.628-1.144-1.75-2.671-1.541-4.058c0.326-2.155,2.572-2.651,4.276-1.793   c1.929,0.974,3.804,2.055,5.655,3.168c4.702,2.827,9.234,5.934,13.642,9.197c4.987,3.695,9.826,7.596,14.506,11.673   c1.189,1.035,2.365,2.083,3.535,3.14c0.296,0.268,0.591,0.535,0.885,0.804c0.392,0.356,0.433,0.69,0.874,0.264   c0.66-0.64,1.321-1.278,1.983-1.916c2.349-2.26,4.713-4.504,7.093-6.73c9.258-8.661,18.761-17.071,28.577-25.096   c1.042-0.853,2.083-1.706,3.127-2.556c-8.416-8.998-16.309-18.54-23.204-28.762c-2.666-3.951-5.246-8.008-7.407-12.261   c-0.755-1.486-0.767-3.338,0.976-4.167c1.58-0.752,3.221,0.441,4.567,1.176c9.839,5.362,18.943,12.168,27.553,19.307   c2.437,2.02,4.836,4.086,7.194,6.199c1.137,1.019,2.265,2.047,3.385,3.084c0.565,0.524,1.129,1.051,1.691,1.578   c0.282,0.266,0.563,0.531,0.844,0.797c0.587,0.557,0.551,0.542,1.202,0.063c4.767-3.51,9.616-6.914,14.579-10.142   c1.64-1.066,3.292-2.113,4.97-3.118c1.122-0.672,2.261-1.199,3.594-0.66c1.892,0.766,2.483,3.014,1.488,4.715   c-0.705,1.206-1.443,2.393-2.189,3.572c-3.037,4.801-6.272,9.48-9.598,14.084c-0.415,0.575-0.833,1.147-1.251,1.719   c-0.215,0.294-0.431,0.587-0.647,0.88c-0.305,0.415-0.568,0.454-0.17,0.875c1.147,1.215,2.286,2.439,3.414,3.673   c2.115,2.314,4.192,4.662,6.217,7.056c5.466,6.45,10.633,13.164,15.317,20.205c2.085,3.134,4.079,6.337,5.888,9.638   C316.265,206.399,318.33,209.427,315.576,210.723C314.89,211.046,316.807,210.143,315.576,210.723z" fill="#ffffff"/>
	<path d="M6.22,258.59c-3.073,15.754-5.027,31.882-5.815,48.303c-2.951,61.43,11.203,105.569,11.807,107.418   c1.667,5.101,5.703,8.936,10.65,10.448c3.654,1.155,39.668,12.113,90.298,12.114c0.004,0,0.006,0,0.01,0   c19.333,0,41.446-1.615,65.099-6.241C128.072,365.232,71.598,308.762,6.22,258.59z" fill="#ffffff"/>
</g>
<g>
</g>
<g>
</g>
<g>
</g>
<g>
</g>
<g>
</g>
<g>
</g>
<g>
</g>
<g>
</g>
<g>
</g>
<g>
</g>
<g>
</g>
<g>
</g>
<g>
</g>
<g>
</g>
<g>
</g>
</svg>
